<mxfile host="app.diagrams.net" modified="2021-04-14T08:17:42.543Z" agent="5.0 (X11; Linux x86_64) AppleWebKit/537.36 (KHTML, like Gecko) Chrome/88.0.4324.182 Safari/537.36" etag="nP9Oq-RMkljw_2b5oiIt" version="14.6.0" type="github">
  <diagram id="C5RBs43oDa-KdzZeNtuy" name="Page-1">
    <mxGraphModel dx="1422" dy="721" grid="1" gridSize="10" guides="1" tooltips="1" connect="1" arrows="1" fold="1" page="1" pageScale="1" pageWidth="827" pageHeight="1169" math="0" shadow="0">
      <root>
        <mxCell id="WIyWlLk6GJQsqaUBKTNV-0" />
        <mxCell id="WIyWlLk6GJQsqaUBKTNV-1" parent="WIyWlLk6GJQsqaUBKTNV-0" />
        <mxCell id="SdUIgxUM4wOrYbFvS6sf-12" value="" style="edgeStyle=orthogonalEdgeStyle;rounded=0;orthogonalLoop=1;jettySize=auto;html=1;" edge="1" parent="WIyWlLk6GJQsqaUBKTNV-1" source="WIyWlLk6GJQsqaUBKTNV-3" target="SdUIgxUM4wOrYbFvS6sf-0">
          <mxGeometry relative="1" as="geometry" />
        </mxCell>
        <mxCell id="WIyWlLk6GJQsqaUBKTNV-3" value="校验参数" style="rounded=1;whiteSpace=wrap;html=1;fontSize=12;glass=0;strokeWidth=1;shadow=0;fillColor=#dae8fc;strokeColor=#6c8ebf;" parent="WIyWlLk6GJQsqaUBKTNV-1" vertex="1">
          <mxGeometry x="160" y="80" width="120" height="40" as="geometry" />
        </mxCell>
        <mxCell id="WIyWlLk6GJQsqaUBKTNV-11" value="结束" style="rounded=1;whiteSpace=wrap;html=1;fontSize=12;glass=0;strokeWidth=1;shadow=0;fillColor=#dae8fc;strokeColor=#6c8ebf;" parent="WIyWlLk6GJQsqaUBKTNV-1" vertex="1">
          <mxGeometry x="160" y="760" width="120" height="40" as="geometry" />
        </mxCell>
        <mxCell id="SdUIgxUM4wOrYbFvS6sf-2" style="edgeStyle=orthogonalEdgeStyle;rounded=0;orthogonalLoop=1;jettySize=auto;html=1;exitX=0.5;exitY=1;exitDx=0;exitDy=0;entryX=0.5;entryY=0;entryDx=0;entryDy=0;" edge="1" parent="WIyWlLk6GJQsqaUBKTNV-1" source="SdUIgxUM4wOrYbFvS6sf-0" target="SdUIgxUM4wOrYbFvS6sf-1">
          <mxGeometry relative="1" as="geometry" />
        </mxCell>
        <mxCell id="SdUIgxUM4wOrYbFvS6sf-0" value="统计该订单序列号数量" style="rounded=1;whiteSpace=wrap;html=1;fillColor=#d5e8d4;strokeColor=#82b366;" vertex="1" parent="WIyWlLk6GJQsqaUBKTNV-1">
          <mxGeometry x="160" y="140" width="120" height="40" as="geometry" />
        </mxCell>
        <mxCell id="SdUIgxUM4wOrYbFvS6sf-45" style="edgeStyle=orthogonalEdgeStyle;rounded=0;orthogonalLoop=1;jettySize=auto;html=1;exitX=0.5;exitY=1;exitDx=0;exitDy=0;entryX=0.5;entryY=0;entryDx=0;entryDy=0;" edge="1" parent="WIyWlLk6GJQsqaUBKTNV-1" source="SdUIgxUM4wOrYbFvS6sf-1" target="SdUIgxUM4wOrYbFvS6sf-42">
          <mxGeometry relative="1" as="geometry" />
        </mxCell>
        <mxCell id="SdUIgxUM4wOrYbFvS6sf-48" style="edgeStyle=orthogonalEdgeStyle;rounded=0;orthogonalLoop=1;jettySize=auto;html=1;exitX=0.5;exitY=1;exitDx=0;exitDy=0;" edge="1" parent="WIyWlLk6GJQsqaUBKTNV-1" source="SdUIgxUM4wOrYbFvS6sf-1" target="SdUIgxUM4wOrYbFvS6sf-5">
          <mxGeometry relative="1" as="geometry" />
        </mxCell>
        <mxCell id="SdUIgxUM4wOrYbFvS6sf-1" value="将序列号按数量分发给其他协程执行" style="rounded=1;whiteSpace=wrap;html=1;fillColor=#d5e8d4;strokeColor=#82b366;" vertex="1" parent="WIyWlLk6GJQsqaUBKTNV-1">
          <mxGeometry x="160" y="200" width="120" height="37" as="geometry" />
        </mxCell>
        <mxCell id="SdUIgxUM4wOrYbFvS6sf-11" value="" style="edgeStyle=orthogonalEdgeStyle;rounded=0;orthogonalLoop=1;jettySize=auto;html=1;" edge="1" parent="WIyWlLk6GJQsqaUBKTNV-1" source="SdUIgxUM4wOrYbFvS6sf-3" target="SdUIgxUM4wOrYbFvS6sf-10">
          <mxGeometry relative="1" as="geometry" />
        </mxCell>
        <mxCell id="SdUIgxUM4wOrYbFvS6sf-3" value="查询序列号" style="rounded=0;whiteSpace=wrap;html=1;fillColor=#ffe6cc;strokeColor=#d79b00;" vertex="1" parent="WIyWlLk6GJQsqaUBKTNV-1">
          <mxGeometry x="79" y="340" width="120" height="40" as="geometry" />
        </mxCell>
        <mxCell id="SdUIgxUM4wOrYbFvS6sf-49" style="edgeStyle=orthogonalEdgeStyle;rounded=0;orthogonalLoop=1;jettySize=auto;html=1;exitX=0.5;exitY=1;exitDx=0;exitDy=0;" edge="1" parent="WIyWlLk6GJQsqaUBKTNV-1" source="SdUIgxUM4wOrYbFvS6sf-5" target="SdUIgxUM4wOrYbFvS6sf-31">
          <mxGeometry relative="1" as="geometry" />
        </mxCell>
        <mxCell id="SdUIgxUM4wOrYbFvS6sf-5" value="其他协程......" style="rounded=0;whiteSpace=wrap;html=1;fillColor=#ffe6cc;strokeColor=#d79b00;" vertex="1" parent="WIyWlLk6GJQsqaUBKTNV-1">
          <mxGeometry x="241.5" y="280" width="120" height="40" as="geometry" />
        </mxCell>
        <mxCell id="SdUIgxUM4wOrYbFvS6sf-14" value="" style="edgeStyle=orthogonalEdgeStyle;rounded=0;orthogonalLoop=1;jettySize=auto;html=1;" edge="1" parent="WIyWlLk6GJQsqaUBKTNV-1" source="SdUIgxUM4wOrYbFvS6sf-10" target="SdUIgxUM4wOrYbFvS6sf-13">
          <mxGeometry relative="1" as="geometry" />
        </mxCell>
        <mxCell id="SdUIgxUM4wOrYbFvS6sf-10" value="对序列号和其他关键信息进行加密" style="rounded=0;whiteSpace=wrap;html=1;fillColor=#ffe6cc;strokeColor=#d79b00;" vertex="1" parent="WIyWlLk6GJQsqaUBKTNV-1">
          <mxGeometry x="79" y="410" width="120" height="40" as="geometry" />
        </mxCell>
        <mxCell id="SdUIgxUM4wOrYbFvS6sf-17" style="edgeStyle=orthogonalEdgeStyle;rounded=0;orthogonalLoop=1;jettySize=auto;html=1;entryX=0.5;entryY=0;entryDx=0;entryDy=0;exitX=0.5;exitY=1;exitDx=0;exitDy=0;" edge="1" parent="WIyWlLk6GJQsqaUBKTNV-1" source="SdUIgxUM4wOrYbFvS6sf-13" target="SdUIgxUM4wOrYbFvS6sf-15">
          <mxGeometry relative="1" as="geometry">
            <Array as="points">
              <mxPoint x="139" y="540" />
              <mxPoint x="220" y="540" />
            </Array>
          </mxGeometry>
        </mxCell>
        <mxCell id="SdUIgxUM4wOrYbFvS6sf-13" value="将加密后的内容写入文件" style="rounded=0;whiteSpace=wrap;html=1;fillColor=#ffe6cc;strokeColor=#d79b00;" vertex="1" parent="WIyWlLk6GJQsqaUBKTNV-1">
          <mxGeometry x="79" y="480" width="120" height="40" as="geometry" />
        </mxCell>
        <mxCell id="SdUIgxUM4wOrYbFvS6sf-25" value="" style="edgeStyle=orthogonalEdgeStyle;rounded=0;orthogonalLoop=1;jettySize=auto;html=1;" edge="1" parent="WIyWlLk6GJQsqaUBKTNV-1" source="SdUIgxUM4wOrYbFvS6sf-15" target="SdUIgxUM4wOrYbFvS6sf-24">
          <mxGeometry relative="1" as="geometry" />
        </mxCell>
        <mxCell id="SdUIgxUM4wOrYbFvS6sf-15" value="将文件汇总，压缩成压缩包" style="rounded=0;whiteSpace=wrap;html=1;fillColor=#d5e8d4;strokeColor=#82b366;" vertex="1" parent="WIyWlLk6GJQsqaUBKTNV-1">
          <mxGeometry x="160" y="570" width="120" height="40" as="geometry" />
        </mxCell>
        <mxCell id="SdUIgxUM4wOrYbFvS6sf-27" value="" style="edgeStyle=orthogonalEdgeStyle;rounded=0;orthogonalLoop=1;jettySize=auto;html=1;" edge="1" parent="WIyWlLk6GJQsqaUBKTNV-1" source="SdUIgxUM4wOrYbFvS6sf-24" target="SdUIgxUM4wOrYbFvS6sf-26">
          <mxGeometry relative="1" as="geometry" />
        </mxCell>
        <mxCell id="SdUIgxUM4wOrYbFvS6sf-24" value="将压缩包上传到oss服务" style="rounded=0;whiteSpace=wrap;html=1;fillColor=#d5e8d4;strokeColor=#82b366;" vertex="1" parent="WIyWlLk6GJQsqaUBKTNV-1">
          <mxGeometry x="160" y="635" width="120" height="40" as="geometry" />
        </mxCell>
        <mxCell id="SdUIgxUM4wOrYbFvS6sf-28" value="" style="edgeStyle=orthogonalEdgeStyle;rounded=0;orthogonalLoop=1;jettySize=auto;html=1;" edge="1" parent="WIyWlLk6GJQsqaUBKTNV-1" source="SdUIgxUM4wOrYbFvS6sf-26" target="WIyWlLk6GJQsqaUBKTNV-11">
          <mxGeometry relative="1" as="geometry" />
        </mxCell>
        <mxCell id="SdUIgxUM4wOrYbFvS6sf-26" value="将oss上的下载地址保存到任务详情" style="rounded=0;whiteSpace=wrap;html=1;fillColor=#d5e8d4;strokeColor=#82b366;" vertex="1" parent="WIyWlLk6GJQsqaUBKTNV-1">
          <mxGeometry x="160" y="700" width="120" height="40" as="geometry" />
        </mxCell>
        <mxCell id="SdUIgxUM4wOrYbFvS6sf-50" style="edgeStyle=orthogonalEdgeStyle;rounded=0;orthogonalLoop=1;jettySize=auto;html=1;exitX=0.5;exitY=1;exitDx=0;exitDy=0;" edge="1" parent="WIyWlLk6GJQsqaUBKTNV-1" source="SdUIgxUM4wOrYbFvS6sf-31" target="SdUIgxUM4wOrYbFvS6sf-32">
          <mxGeometry relative="1" as="geometry" />
        </mxCell>
        <mxCell id="SdUIgxUM4wOrYbFvS6sf-31" value="查询序列号" style="rounded=0;whiteSpace=wrap;html=1;fillColor=#ffe6cc;strokeColor=#d79b00;" vertex="1" parent="WIyWlLk6GJQsqaUBKTNV-1">
          <mxGeometry x="242" y="340" width="120" height="40" as="geometry" />
        </mxCell>
        <mxCell id="SdUIgxUM4wOrYbFvS6sf-51" style="edgeStyle=orthogonalEdgeStyle;rounded=0;orthogonalLoop=1;jettySize=auto;html=1;exitX=0.5;exitY=1;exitDx=0;exitDy=0;" edge="1" parent="WIyWlLk6GJQsqaUBKTNV-1" source="SdUIgxUM4wOrYbFvS6sf-32" target="SdUIgxUM4wOrYbFvS6sf-33">
          <mxGeometry relative="1" as="geometry" />
        </mxCell>
        <mxCell id="SdUIgxUM4wOrYbFvS6sf-32" value="对序列号和其他关键信息进行加密" style="rounded=0;whiteSpace=wrap;html=1;fillColor=#ffe6cc;strokeColor=#d79b00;" vertex="1" parent="WIyWlLk6GJQsqaUBKTNV-1">
          <mxGeometry x="242" y="410" width="120" height="40" as="geometry" />
        </mxCell>
        <mxCell id="SdUIgxUM4wOrYbFvS6sf-52" style="edgeStyle=orthogonalEdgeStyle;rounded=0;orthogonalLoop=1;jettySize=auto;html=1;exitX=0.5;exitY=1;exitDx=0;exitDy=0;entryX=0.5;entryY=0;entryDx=0;entryDy=0;" edge="1" parent="WIyWlLk6GJQsqaUBKTNV-1" source="SdUIgxUM4wOrYbFvS6sf-33" target="SdUIgxUM4wOrYbFvS6sf-15">
          <mxGeometry relative="1" as="geometry">
            <Array as="points">
              <mxPoint x="302" y="540" />
              <mxPoint x="220" y="540" />
            </Array>
          </mxGeometry>
        </mxCell>
        <mxCell id="SdUIgxUM4wOrYbFvS6sf-33" value="将加密后的内容写入文件" style="rounded=0;whiteSpace=wrap;html=1;fillColor=#ffe6cc;strokeColor=#d79b00;" vertex="1" parent="WIyWlLk6GJQsqaUBKTNV-1">
          <mxGeometry x="242" y="480" width="120" height="40" as="geometry" />
        </mxCell>
        <mxCell id="SdUIgxUM4wOrYbFvS6sf-43" style="edgeStyle=orthogonalEdgeStyle;rounded=0;orthogonalLoop=1;jettySize=auto;html=1;exitX=0.5;exitY=1;exitDx=0;exitDy=0;entryX=0.5;entryY=0;entryDx=0;entryDy=0;" edge="1" parent="WIyWlLk6GJQsqaUBKTNV-1" source="SdUIgxUM4wOrYbFvS6sf-42" target="SdUIgxUM4wOrYbFvS6sf-3">
          <mxGeometry relative="1" as="geometry" />
        </mxCell>
        <mxCell id="SdUIgxUM4wOrYbFvS6sf-42" value="协程1" style="rounded=0;whiteSpace=wrap;html=1;fillColor=#ffe6cc;strokeColor=#d79b00;" vertex="1" parent="WIyWlLk6GJQsqaUBKTNV-1">
          <mxGeometry x="79" y="280" width="120" height="40" as="geometry" />
        </mxCell>
      </root>
    </mxGraphModel>
  </diagram>
</mxfile>
